# Blender v2.72 (sub 0) OBJ File: 'fighterJet.blend'
# www.blender.org
v 0.445745 -0.348737 -0.565559
v 0.346482 -0.348737 0.434441
v 0.369470 -0.181037 -1.509919
v 0.292746 -0.374864 -4.821895
v 0.142850 0.174385 -5.948070
v 0.434670 -0.387511 -1.509919
v 0.248834 -0.181778 -4.821895
v 0.344407 -0.290814 -4.907596
v 2.433164 -0.098790 -2.432985
v 2.356889 -0.014940 -2.905165
v 2.280166 -0.111854 -4.561153
v 2.422090 -0.159570 -2.905165
v 2.236254 -0.015310 -4.561153
v 2.230434 -0.069828 -4.687165
v 3.064034 -0.008339 -3.836004
v 2.987759 0.075512 -4.072094
v 3.266855 -0.021402 -5.099402
v 3.052959 -0.027726 -4.072094
v 3.222943 0.075141 -5.099402
v 3.129666 0.020623 -4.072094
v 3.318516 0.020623 -5.223993
v 0.000000 -0.816032 -0.565559
v 0.000000 -0.662044 0.434441
v 0.000000 0.000913 0.434441
v 0.000000 0.282412 -0.565559
v -0.445745 -0.348737 -0.565559
v -0.346482 -0.348737 0.434441
v 0.000000 -0.438737 1.120910
v 0.000000 0.104781 -1.509919
v 0.000000 -0.935459 -1.509919
v -0.369470 -0.181037 -1.509919
v 0.000000 0.102109 -4.821895
v 0.000000 -0.851148 -4.821895
v -0.292746 -0.374864 -4.821895
v 0.000000 0.465915 -5.948070
v 0.000000 -0.117145 -5.948070
v -0.142850 0.174385 -5.948070
v -0.434670 -0.387511 -1.509919
v -0.248834 -0.181778 -4.821895
v -0.344407 -0.290814 -4.907596
v -2.433164 -0.098790 -2.432985
v -2.356889 -0.014940 -2.905165
v -2.280166 -0.111854 -4.561153
v -2.422090 -0.159570 -2.905165
v -2.236254 -0.015310 -4.561153
v -2.230434 -0.069828 -4.687165
v -3.064034 -0.008339 -3.836004
v -2.987759 0.075512 -4.072094
v -3.266855 -0.021402 -5.099402
v -3.052959 -0.027726 -4.072094
v -3.222943 0.075141 -5.099402
v -3.129666 0.020623 -4.072094
v -3.318516 0.020623 -5.223993
vt 0.141326 0.846148
vt 0.131700 0.789613
vt 0.256736 0.769978
vt 0.371748 0.873254
vt 0.774599 0.877491
vt 0.776357 0.924235
vt 0.257878 0.849037
vt 0.253482 0.943259
vt 0.371861 0.930339
vt 0.374634 0.760198
vt 0.128591 0.905493
vt 0.046898 0.835222
vt 0.372013 0.846484
vt 0.779676 0.787255
vt 0.894997 0.909964
vt 0.909440 0.943248
vt 0.908855 0.877388
vt 0.564230 0.704034
vt 0.571804 0.589602
vt 0.827239 0.441011
vt 0.589340 0.186948
vt 0.828197 0.238668
vt 0.406485 0.173688
vt 0.461357 0.042016
vt 0.415690 0.191618
vt 0.173104 0.195667
vt 0.175689 0.179506
vt 0.598378 0.173983
vt 0.824518 0.222069
vt 0.588779 0.034332
vt 0.825319 0.498531
vt 0.917550 0.308237
vt 0.948460 0.193029
vt 0.065240 0.131693
vt 0.055048 0.114455
vt 0.957767 0.178797
vt 0.356106 0.591206
vt 0.134444 0.395042
vt 0.334040 0.706228
vt 0.118602 0.451849
vt 0.060430 0.274088
vt 0.056705 0.244762
vt 0.074429 0.246548
vt 0.928258 0.309259
vt 0.916956 0.336547
vt 0.774103 0.853366
vn 0.666400 -0.736900 0.113500
vn 0.751700 0.658900 -0.027500
vn 0.814200 0.575000 0.080800
vn 0.609400 0.787700 0.090700
vn 0.720900 -0.687600 0.087000
vn 0.647600 0.641700 0.411000
vn 0.652000 -0.721000 0.234600
vn 0.783300 -0.621400 -0.015800
vn 0.896700 0.439400 0.054600
vn 0.863200 -0.423000 -0.275700
vn 0.140800 -0.989300 0.039000
vn 0.132400 -0.991200 -0.009500
vn 0.790300 0.601600 0.115900
vn -0.024900 0.917900 -0.396000
vn 0.150400 -0.918500 -0.365700
vn 0.501900 -0.749200 -0.432200
vn 0.391500 -0.913700 0.108400
vn 0.072300 -0.996800 -0.034900
vn -0.393400 0.692500 -0.604800
vn -0.065000 -0.954000 -0.292500
vn -0.079400 0.996800 0.005600
vn 0.035100 0.984900 0.169200
vn 0.352700 0.911900 0.209900
vn 0.624100 0.768200 0.142600
vn 0.532700 -0.845100 0.044400
vn 0.836100 -0.521200 0.170900
vn -0.242000 0.968700 -0.055800
vn 0.344000 0.914400 0.213600
vn 0.000000 0.000000 -1.000000
vn -0.666400 -0.736900 0.113500
vn -0.751700 0.658900 -0.027500
vn -0.696800 0.690500 0.194400
vn -0.609400 0.787700 0.090700
vn -0.783300 -0.621400 0.016300
vn -0.647600 0.641700 0.411000
vn -0.652000 -0.721000 0.234600
vn -0.851300 -0.523300 -0.038500
vn -0.896700 0.439400 0.054600
vn -0.863200 -0.423000 -0.275700
vn -0.233000 -0.965200 0.118800
vn -0.088700 -0.995400 -0.036300
vn -0.790300 0.601600 0.115900
vn 0.024900 0.917900 -0.396000
vn -0.150400 -0.918500 -0.365700
vn -0.501900 -0.749200 -0.432200
vn -0.282500 -0.957000 0.065300
vn -0.305500 -0.950500 0.057700
vn 0.393400 0.692500 -0.604800
vn 0.110600 -0.926900 -0.358500
vn 0.079400 0.996800 0.005600
vn -0.035100 0.984900 0.169200
vn -0.352700 0.911900 0.209900
vn -0.360100 0.931000 0.059000
vn -0.532700 -0.845100 0.044400
vn -0.836100 -0.521200 0.170900
vn 0.242000 0.968700 -0.055800
vn -0.344000 0.914400 0.213600
vn 0.721700 -0.688500 0.071600
vn 0.611900 0.791000 -0.000600
vn 0.696800 0.690500 0.194400
vn 0.812100 0.573500 -0.107900
vn 0.783300 -0.621400 0.016300
vn 0.851300 -0.523300 -0.038500
vn 0.735500 0.644700 0.208300
vn 0.799300 -0.491300 -0.346000
vn 0.233000 -0.965200 0.118800
vn 0.088700 -0.995400 -0.036300
vn 0.017500 0.627300 -0.778600
vn 0.182600 -0.754700 -0.630100
vn 0.282500 -0.957000 0.065300
vn 0.305500 -0.950500 0.057700
vn -0.258300 0.890900 -0.373500
vn -0.110600 -0.926900 -0.358500
vn -0.083800 0.996500 0.002800
vn 0.038300 0.984400 0.171700
vn 0.360100 0.931000 0.059000
vn 0.531200 -0.842800 0.087100
vn -0.087900 0.996100 0.006200
vn 0.139500 0.978600 0.151300
vn -0.721700 -0.688500 0.071600
vn -0.611900 0.791000 -0.000600
vn -0.814200 0.575000 0.080800
vn -0.812100 0.573500 -0.107900
vn -0.720900 -0.687600 0.087000
vn -0.783300 -0.621400 -0.015800
vn -0.735500 0.644700 0.208300
vn -0.799300 -0.491300 -0.346000
vn -0.140800 -0.989300 0.039000
vn -0.132400 -0.991200 -0.009500
vn -0.017500 0.627300 -0.778600
vn -0.182600 -0.754700 -0.630100
vn -0.391500 -0.913700 0.108400
vn -0.072300 -0.996800 -0.034900
vn 0.258300 0.890900 -0.373500
vn 0.065000 -0.954000 -0.292500
vn 0.083800 0.996500 0.002800
vn -0.038300 0.984400 0.171700
vn -0.624100 0.768200 0.142600
vn -0.531200 -0.842800 0.087100
vn 0.087900 0.996100 0.006200
vn -0.139500 0.978600 0.151300
s off
f 2/1/1 23/2/1 22/3/1
f 3/4/2 7/5/2 32/6/2
f 2/1/3 1/7/3 25/8/3
f 1/7/4 3/4/4 29/9/4
f 1/7/5 22/3/5 30/10/5
f 2/1/6 24/11/6 28/12/6
f 23/2/7 2/1/7 28/12/7
f 6/13/8 30/10/8 33/14/8
f 7/5/9 5/15/9 35/16/9
f 33/14/10 36/17/10 5/15/10
f 1/18/11 6/19/11 12/20/11
f 6/19/12 4/21/12 11/22/12
f 8/23/13 5/24/13 7/25/13
f 7/25/14 13/26/14 14/27/14
f 8/28/15 14/29/15 11/22/15
f 5/30/16 8/28/16 4/21/16
f 9/31/17 12/20/17 18/32/17
f 12/20/18 11/22/18 17/33/18
f 13/26/19 19/34/19 21/35/19
f 11/22/20 14/29/20 21/36/20
f 3/37/21 10/38/21 13/26/21
f 1/39/22 9/40/22 10/38/22
f 15/41/23 20/42/23 16/43/23
f 21/35/24 19/34/24 16/43/24
f 20/44/25 15/45/25 18/32/25
f 18/32/26 17/33/26 21/36/26
f 10/38/27 16/43/27 19/34/27
f 9/40/28 15/41/28 16/43/28
f 5/15/29 36/17/29 35/16/29
f 22/3/30 23/2/30 27/1/30
f 32/6/31 39/5/31 31/4/31
f 27/1/32 24/11/32 25/8/32
f 29/9/33 31/4/33 26/7/33
f 26/7/34 38/13/34 30/10/34
f 27/1/35 28/12/35 24/11/35
f 23/2/36 28/12/36 27/1/36
f 38/13/37 34/46/37 33/14/37
f 35/16/38 37/15/38 39/5/38
f 37/15/39 36/17/39 33/14/39
f 26/18/40 41/31/40 44/20/40
f 38/19/41 44/20/41 43/22/41
f 40/23/42 39/25/42 37/24/42
f 46/27/43 45/26/43 39/25/43
f 43/22/44 46/29/44 40/28/44
f 37/30/45 34/21/45 40/28/45
f 41/31/46 47/45/46 50/32/46
f 44/20/47 50/32/47 49/33/47
f 53/35/48 51/34/48 45/26/48
f 43/22/49 49/33/49 53/36/49
f 45/26/50 42/38/50 31/37/50
f 42/38/51 41/40/51 26/39/51
f 47/41/52 48/43/52 52/42/52
f 53/35/53 52/42/53 48/43/53
f 52/44/54 50/32/54 47/45/54
f 53/36/55 49/33/55 50/32/55
f 51/34/56 48/43/56 42/38/56
f 48/43/57 47/41/57 41/40/57
f 37/15/29 35/16/29 36/17/29
f 1/7/58 2/1/58 22/3/58
f 29/9/59 3/4/59 32/6/59
f 24/11/60 2/1/60 25/8/60
f 25/8/61 1/7/61 29/9/61
f 6/13/62 1/7/62 30/10/62
f 4/46/63 6/13/63 33/14/63
f 32/6/64 7/5/64 35/16/64
f 4/46/65 33/14/65 5/15/65
f 9/31/66 1/18/66 12/20/66
f 12/20/67 6/19/67 11/22/67
f 8/23/68 7/25/68 14/27/68
f 4/21/69 8/28/69 11/22/69
f 15/45/70 9/31/70 18/32/70
f 18/32/71 12/20/71 17/33/71
f 14/27/72 13/26/72 21/35/72
f 17/33/73 11/22/73 21/36/73
f 7/25/74 3/37/74 13/26/74
f 3/37/75 1/39/75 10/38/75
f 20/42/76 21/35/76 16/43/76
f 20/44/77 18/32/77 21/36/77
f 13/26/78 10/38/78 19/34/78
f 10/38/79 9/40/79 16/43/79
f 26/7/80 22/3/80 27/1/80
f 29/9/81 32/6/81 31/4/81
f 26/7/82 27/1/82 25/8/82
f 25/8/83 29/9/83 26/7/83
f 22/3/84 26/7/84 30/10/84
f 30/10/85 38/13/85 33/14/85
f 32/6/86 35/16/86 39/5/86
f 34/46/87 37/15/87 33/14/87
f 38/19/88 26/18/88 44/20/88
f 34/21/89 38/19/89 43/22/89
f 40/23/90 46/27/90 39/25/90
f 34/21/91 43/22/91 40/28/91
f 44/20/92 41/31/92 50/32/92
f 43/22/93 44/20/93 49/33/93
f 46/27/94 53/35/94 45/26/94
f 46/29/95 43/22/95 53/36/95
f 39/25/96 45/26/96 31/37/96
f 31/37/97 42/38/97 26/39/97
f 51/34/98 53/35/98 48/43/98
f 52/44/99 53/36/99 50/32/99
f 45/26/100 51/34/100 42/38/100
f 42/38/101 48/43/101 41/40/101
