# Blender v2.72 (sub 0) OBJ File: 'rock3.blend'
# www.blender.org
# Creator: Tim Porritt
v 0.733499 2.692028 -0.849212
v 0.603828 1.888633 -1.739189
v -0.337713 2.067916 -0.883556
v -0.089014 2.471003 0.305057
v 1.539302 2.273640 0.540871
v 2.343028 1.663774 -1.101251
v -0.694393 0.568552 -1.918815
v -1.486116 0.783677 0.541124
v -0.200414 0.707057 1.666386
v 2.296356 0.377502 0.238025
v 1.581794 0.128495 -1.440026
v -0.256549 -0.238846 0.388135
v 0.205403 2.522987 -0.910727
v 0.699282 2.447509 -1.405544
v 0.098133 2.125395 -1.578702
v 1.407152 1.841148 -1.470278
v 1.373710 2.429013 -0.930383
v 0.328125 2.738722 -0.228782
v -0.330730 2.366636 -0.231716
v 1.233191 2.632136 -0.112044
v 0.663433 2.632796 0.572951
v 2.094201 2.080770 -0.103755
v 1.032364 0.980259 -1.911213
v 2.262352 0.706240 -1.305359
v -0.661802 1.523957 -1.639132
v 0.012379 1.270902 -2.174719
v -0.872079 1.597453 0.468426
v -1.163924 1.619261 -0.360961
v 1.348761 1.869836 1.114799
v -0.234538 1.671664 0.988351
v 2.761246 0.929660 -0.398808
v 2.343885 1.349619 0.507292
v 0.270281 0.259624 -2.019681
v -1.313324 0.600584 -0.361928
v -1.042626 0.623871 1.525165
v 1.878591 0.392859 1.418907
v 2.029551 0.201343 -0.616788
v -0.816634 -0.244265 -1.088250
v 1.066286 -0.337936 -1.112853
v -1.294528 -0.214717 0.852119
v -0.447950 -0.255089 1.370381
v 1.696351 -0.214069 0.486872
vt 0.665175 0.326596
vt 0.731295 0.340210
vt 0.662729 0.393495
vt 0.052204 0.691520
vt 0.004952 0.628138
vt 0.107458 0.594497
vt 0.584476 0.363934
vt 0.592205 0.238491
vt 0.691735 0.237484
vt 0.167504 0.714327
vt 0.306268 0.790001
vt 0.291009 0.681570
vt 0.363055 0.699342
vt 0.846287 0.510684
vt 0.888247 0.472552
vt 0.888247 0.625462
vt 0.528309 0.170381
vt 0.501049 0.294485
vt 0.463153 0.168782
vt 0.741935 0.094207
vt 0.616848 0.110137
vt 0.679392 0.000000
vt 0.074914 0.818249
vt 0.363055 0.888018
vt 0.517297 0.396937
vt 0.492033 0.472552
vt 0.445394 0.375888
vt 0.561070 0.040792
vt 0.184734 0.487613
vt 0.291009 0.462860
vt 0.274463 0.571638
vt 0.050109 0.027569
vt 0.161172 0.000000
vt 0.039707 0.131427
vt 0.477722 0.888199
vt 0.497232 0.762255
vt 0.597259 0.920005
vt 0.739721 0.667749
vt 0.727765 0.550993
vt 0.846287 0.600566
vt 0.918352 0.171543
vt 0.909826 0.000000
vt 1.000000 0.105272
vt 0.319215 0.064060
vt 0.378823 0.172755
vt 0.259808 0.107785
vt 0.302392 0.528615
vt 0.365109 0.462860
vt 0.343787 0.568756
vt 0.741935 0.415821
vt 0.000000 0.724421
vt 0.051800 0.534761
vt 0.574913 0.441073
vt 0.291009 0.639808
vt 0.291009 0.692878
vt 0.389040 0.569980
vt 0.421590 0.472552
vt 0.499871 0.532938
vt 0.015010 0.853001
vt 0.386365 0.855752
vt 0.378823 0.758117
vt 0.801356 0.365077
vt 0.822346 0.463934
vt 0.741935 0.463934
vt 0.365109 0.681570
vt 0.681479 0.878197
vt 0.658600 0.662740
vt 0.597259 0.788438
vt 0.852544 0.279104
vt 0.803909 0.143542
vt 0.741935 0.209226
vt 0.193915 0.853439
vt 0.106582 0.934709
vt 0.378823 0.439751
vt 0.503064 1.000000
vt 0.768985 0.014184
vt 0.846287 0.921104
vt 0.910355 0.365077
vt 0.962135 0.263906
vt 1.000000 0.342708
vt 0.117678 0.327177
vt 0.000000 0.401278
vt 0.597259 0.645773
vt 0.103382 0.462860
vt 0.834181 0.472552
vt 0.347447 0.321200
vt 0.378823 0.454419
vn -0.242000 0.893700 -0.377900
vn 0.307400 0.448500 -0.839200
vn -0.269400 0.931100 -0.246100
vn 0.116800 0.993200 0.001500
vn 0.356500 0.919300 -0.167000
vn 0.317800 0.319000 -0.892900
vn -0.577400 0.759600 -0.299200
vn -0.713100 0.674800 0.189900
vn 0.318600 0.722200 0.613900
vn 0.866000 0.500000 0.007000
vn 0.321500 0.320400 -0.891100
vn -0.591400 0.753000 -0.288500
vn -0.546600 0.599400 0.584700
vn 0.626300 0.524400 0.576900
vn 0.872500 0.030400 -0.487700
vn -0.284900 -0.663800 -0.691500
vn -0.963800 -0.228000 -0.138200
vn -0.134700 -0.259500 0.956300
vn 0.730500 -0.628700 0.266600
vn 0.564700 -0.790500 -0.237200
vn -0.616400 0.716200 -0.327300
vn -0.319400 0.836000 -0.446300
vn -0.030000 0.516100 -0.856000
vn 0.384400 0.636200 -0.668900
vn 0.466400 0.612600 -0.638100
vn 0.304700 0.864900 -0.398900
vn -0.491300 0.869500 0.052200
vn -0.482700 0.856200 -0.184000
vn -0.617400 0.717600 -0.322200
vn 0.370600 0.876400 0.307400
vn 0.105500 0.990600 0.086800
vn -0.285500 0.927300 0.241900
vn 0.589300 0.787100 -0.182000
vn 0.536500 0.836000 -0.115400
vn 0.526300 0.824900 0.206200
vn 0.384000 -0.244800 -0.890300
vn 0.470900 0.231100 -0.851400
vn 0.388300 0.160700 -0.907400
vn -0.541700 0.253100 -0.801500
vn -0.380000 0.554500 -0.740300
vn 0.007200 0.571600 -0.820500
vn -0.753900 0.593900 0.280900
vn -0.667400 0.700300 0.253300
vn -0.602300 0.728100 -0.327200
vn -0.135800 0.566500 0.812800
vn -0.130400 0.493500 0.859900
vn -0.376100 0.640700 0.669400
vn 0.861200 -0.174400 0.477500
vn 0.869800 0.455500 0.189600
vn 0.692000 0.587200 0.419900
vn -0.162000 -0.189800 -0.968400
vn 0.224600 -0.091500 -0.970200
vn 0.369200 -0.256000 -0.893400
vn -0.966500 0.142000 -0.213700
vn -0.918800 0.135100 -0.371000
vn -0.919200 0.139200 -0.368300
vn -0.190500 0.560000 0.806300
vn -0.514200 0.670500 0.534800
vn -0.709100 0.571900 0.412500
vn 0.933200 -0.137600 0.331900
vn 0.616600 0.364800 0.697600
vn 0.151800 0.251300 0.955900
vn 0.651800 -0.699600 -0.292600
vn 0.720000 -0.652900 -0.235300
vn 0.715100 -0.694400 -0.080100
vn -0.049400 -0.998500 0.022400
vn -0.049200 -0.853300 -0.519100
vn 0.222700 -0.712700 -0.665200
vn -0.018500 -0.999800 0.010700
vn -0.911700 -0.347500 -0.219200
vn -0.906600 -0.227200 -0.355700
vn -0.033500 -0.999200 -0.023100
vn -0.480200 -0.456800 0.748800
vn -0.913600 -0.049600 0.403700
vn 0.013400 -0.999800 -0.013900
vn 0.222500 -0.836300 0.501100
vn 0.066300 -0.308900 0.948800
vn 0.008900 -0.997200 0.073700
vn 0.540300 -0.828300 -0.148700
vn 0.686800 -0.724000 -0.065200
s off
f 1/1/1 14/2/1 13/3/1
f 2/4/2 14/5/2 16/6/2
f 1/1/3 13/3/3 18/7/3
f 1/1/4 18/7/4 20/8/4
f 1/1/5 20/8/5 17/9/5
f 2/4/6 16/6/6 23/10/6
f 3/11/7 15/12/7 25/13/7
f 4/14/8 19/15/8 27/16/8
f 5/17/9 21/18/9 29/19/9
f 6/20/10 22/21/10 31/22/10
f 2/4/11 23/10/11 26/23/11
f 3/11/12 25/13/12 28/24/12
f 4/25/13 27/26/13 30/27/13
f 5/17/14 29/19/14 32/28/14
f 6/29/15 31/30/15 24/31/15
f 7/32/16 33/33/16 38/34/16
f 8/35/17 34/36/17 40/37/17
f 9/38/18 35/39/18 41/40/18
f 10/41/19 36/42/19 42/43/19
f 11/44/20 37/45/20 39/46/20
f 13/47/21 15/48/21 3/49/21
f 13/3/22 14/2/22 15/50/22
f 14/5/23 2/4/23 15/51/23
f 16/6/24 17/52/24 6/29/24
f 16/6/25 14/5/25 17/52/25
f 14/2/26 1/1/26 17/9/26
f 18/7/27 19/53/27 4/25/27
f 18/7/28 13/3/28 19/53/28
f 13/47/29 3/49/29 19/54/29
f 20/8/30 21/18/30 5/17/30
f 20/8/31 18/7/31 21/18/31
f 18/7/32 4/25/32 21/18/32
f 17/9/33 22/21/33 6/20/33
f 17/9/34 20/8/34 22/21/34
f 20/8/35 5/17/35 22/21/35
f 23/10/36 24/31/36 11/55/36
f 23/10/37 16/6/37 24/31/37
f 16/6/38 6/29/38 24/31/38
f 25/56/39 26/57/39 7/58/39
f 25/59/40 15/51/40 26/23/40
f 15/51/41 2/4/41 26/23/41
f 27/60/42 28/61/42 8/35/42
f 27/62/43 19/63/43 28/64/43
f 19/54/44 3/49/44 28/65/44
f 29/66/45 30/67/45 9/38/45
f 29/66/46 21/68/46 30/67/46
f 21/18/47 4/25/47 30/27/47
f 31/69/48 32/70/48 10/41/48
f 31/69/49 22/71/49 32/70/49
f 22/21/50 5/17/50 32/28/50
f 26/23/51 33/72/51 7/73/51
f 26/23/52 23/10/52 33/72/52
f 23/10/53 11/55/53 33/72/53
f 28/61/54 34/36/54 8/35/54
f 28/61/55 25/56/55 34/36/55
f 25/56/56 7/58/56 34/36/56
f 30/67/57 35/39/57 9/38/57
f 30/27/58 27/26/58 35/74/58
f 27/60/59 8/35/59 35/75/59
f 32/70/60 36/42/60 10/41/60
f 32/70/61 29/76/61 36/42/61
f 29/66/62 9/38/62 36/77/62
f 24/78/63 37/79/63 11/80/63
f 24/78/64 31/69/64 37/79/64
f 31/69/65 10/41/65 37/79/65
f 38/34/66 39/46/66 12/81/66
f 38/34/67 33/33/67 39/46/67
f 33/33/68 11/44/68 39/46/68
f 40/82/69 38/34/69 12/81/69
f 40/37/70 34/36/70 38/83/70
f 34/36/71 7/58/71 38/83/71
f 41/84/72 40/82/72 12/81/72
f 41/40/73 35/39/73 40/85/73
f 35/75/74 8/35/74 40/37/74
f 42/86/75 41/84/75 12/81/75
f 42/86/76 36/87/76 41/84/76
f 36/77/77 9/38/77 41/40/77
f 39/46/78 42/86/78 12/81/78
f 39/46/79 37/45/79 42/86/79
f 37/79/80 10/41/80 42/43/80
